<?xml version="1.0" encoding="iso-8859-1"?>
<!-- Generator: Adobe Illustrator 16.0.0, SVG Export Plug-In . SVG Version: 6.00 Build 0)  -->
<!DOCTYPE svg PUBLIC "-//W3C//DTD SVG 1.1//EN" "http://www.w3.org/Graphics/SVG/1.1/DTD/svg11.dtd">
<svg version="1.1" id="Capa_1" xmlns="http://www.w3.org/2000/svg" xmlns:xlink="http://www.w3.org/1999/xlink" x="0px" y="0px"
	 width="45.971px" height="45.971px" viewBox="0 0 45.971 45.971" style="enable-background:new 0 0 45.971 45.971;"
	 xml:space="preserve">
<g>
	<g>
		<path d="M0,37.556c0,1.437,1.139,2.623,2.576,2.623h40.793c1.438,0,2.602-1.188,2.602-2.623v-4.369H0V37.556z M25.973,35.168h16
			c0.827,0,1.5,0.654,1.5,1.484c0,0.827-0.672,1.484-1.5,1.484h-16c-0.828,0-1.5-0.657-1.5-1.484
			C24.473,35.822,25.145,35.168,25.973,35.168z"/>
		<path d="M43.369,11.162H31.863v2.721c0,1.188-0.543,2.287-1.482,3.015c-0.664,0.518-1.5,0.804-2.345,0.804
			c-0.099,0-0.196-0.005-0.293-0.013l0.987,2.229c0.428,0.967,0.227,2.083-0.502,2.833c-0.482,0.504-1.162,0.792-1.859,0.792
			c-0.334,0-0.659-0.063-0.965-0.188l-0.189-0.077l-0.072,0.198c-0.367,0.986-1.285,1.64-2.344,1.674l-0.047-0.007h-0.03
			c-1.022,0-1.95-0.596-2.362-1.527l-2.908-6.555l-2.908,6.55c-0.412,0.936-1.339,1.532-2.362,1.532h-0.051l-0.033,0.007
			c-1.055-0.034-1.973-0.691-2.337-1.685l-0.07-0.188l-0.186,0.076c-0.309,0.125-0.635,0.188-0.967,0.188
			c-0.698,0-1.375-0.288-1.855-0.785c-0.736-0.761-0.934-1.876-0.504-2.843l0.987-2.226c-0.099,0.008-0.197,0.013-0.295,0.013
			c-0.845,0-1.688-0.286-2.354-0.806c-0.922-0.715-1.485-1.842-1.485-3.012v-2.722H2.576C1.139,11.162,0,12.326,0,13.762v13.424
			h45.971V13.762C45.971,12.326,44.807,11.162,43.369,11.162z"/>
		<path d="M22.189,22.815c0.093,0.212,0.303,0.348,0.533,0.348c0.006,0,0.011,0,0.017,0c0.237,0,0.447-0.16,0.529-0.38l0.576-1.563
			c0.055-0.148,0.166-0.269,0.311-0.332c0.074-0.033,0.154-0.051,0.234-0.051c0.074,0,0.148,0.015,0.219,0.042l1.543,0.62
			c0.07,0.029,0.145,0.043,0.219,0.043c0.154,0,0.306-0.061,0.417-0.178c0.165-0.17,0.209-0.423,0.114-0.64l-1.596-3.598
			l-5.063-1.292c-0.292,0.19-0.607,0.344-0.943,0.457L22.189,22.815z"/>
		<path d="M8.006,20.724c-0.096,0.217-0.051,0.47,0.114,0.64c0.112,0.117,0.263,0.178,0.418,0.178c0.073,0,0.146-0.014,0.217-0.04
			l1.543-0.623c0.07-0.028,0.144-0.043,0.217-0.043c0.081,0,0.161,0.019,0.236,0.051c0.144,0.064,0.255,0.185,0.31,0.33l0.576,1.565
			c0.083,0.221,0.291,0.381,0.527,0.381c0.006,0,0.011,0,0.018,0c0.23,0,0.44-0.137,0.533-0.348l2.892-6.523
			c-0.336-0.111-0.652-0.266-0.943-0.455l-5.063,1.29L8.006,20.724z"/>
		<path d="M5.766,15.318c0.443,0.343,1.016,0.464,1.559,0.326l5.873-1.495c-0.255-0.535-0.39-1.134-0.39-1.765V9.278
			c0-0.691,0.161-1.341,0.464-1.915L7.325,5.849C6.782,5.71,6.212,5.829,5.769,6.175C5.325,6.52,5.074,7.049,5.074,7.61v6.272
			C5.074,14.443,5.322,14.973,5.766,15.318z"/>
		<path d="M22.15,12.384c0,0.631-0.158,1.229-0.414,1.765l5.85,1.496c0.544,0.137,1.137,0.016,1.58-0.329
			c0.443-0.343,0.718-0.873,0.718-1.434V7.61c0-0.561-0.274-1.092-0.718-1.435c-0.443-0.345-1.027-0.465-1.57-0.326l-5.931,1.514
			c0.302,0.574,0.485,1.224,0.485,1.915V12.384z"/>
		<path d="M16.902,14.502h1.092c1.167,0,2.114-0.945,2.114-2.112V9.254c0-1.167-0.947-2.113-2.114-2.113h-1.092
			c-1.168,0-2.114,0.946-2.114,2.113v3.136C14.788,13.556,15.733,14.502,16.902,14.502z"/>
	</g>
</g>
<g>
</g>
<g>
</g>
<g>
</g>
<g>
</g>
<g>
</g>
<g>
</g>
<g>
</g>
<g>
</g>
<g>
</g>
<g>
</g>
<g>
</g>
<g>
</g>
<g>
</g>
<g>
</g>
<g>
</g>
</svg>
