<svg width="513" height="512" viewBox="0 0 513 512" fill="none" xmlns="http://www.w3.org/2000/svg">
<path d="M256.304 512C287.618 512 317.614 506.367 345.347 496.077L367.608 256L345.347 15.923C317.614 5.633 287.618 0 256.304 0C224.99 0 194.994 5.633 167.261 15.923L145 256L167.261 496.077C194.994 506.367 224.99 512 256.304 512Z" fill="white"/>
<path d="M166.957 16.0003C69.473 52.1713 0 146.006 0 256.077C0 366.148 69.473 459.983 166.957 496.154L166.957 16.0003Z" fill="#002395"/>
<path d="M345.045 496.154C442.529 459.983 512.002 366.148 512.002 256.077C512.002 146.006 442.529 52.1713 345.045 16.0003L345.045 496.154Z" fill="#ED2939"/>
</svg>
